<svg xmlns="http://www.w3.org/2000/svg" viewBox="0 0 300 400" width="300" height="400">
<rect width="300" height="400" fill="#7a5c99"/>
<rect x="204" y="6" width="36" height="36" transform="rotate(45 222 24)" fill="#000" opacity="0.10"/><circle cx="52" cy="214" r="56" fill="#fff" opacity="0.12"/><rect x="39" y="139" width="36" height="36" transform="rotate(45 57 157)" fill="#000" opacity="0.10"/><circle cx="61" cy="223" r="46" fill="#fff" opacity="0.12"/><rect x="160" y="230" width="58" height="58" transform="rotate(45 189 259)" fill="#000" opacity="0.10"/><circle cx="266" cy="115" r="42" fill="#fff" opacity="0.12"/><rect x="84" y="123" width="68" height="68" transform="rotate(45 118 157)" fill="#000" opacity="0.10"/>
<g transform="translate(150 140)" fill="#fff" opacity="0.92"><path d="M-34 60h70v-14c0-18-7-32-15-45l9-8 9 9 12-12-6-20c-7-20-20-26-35-26h-9l-3 12-13 9-20 21 8 12 15-8 10 2-18 29c-5 8-6 20-6 28z"/></g>
<rect y="250" width="300" height="150" fill="#000" opacity="0.28"/>
<g font-family="system-ui, -apple-system, Segoe UI, Roboto, sans-serif" font-size="28" font-weight="700" fill="#fff"><text x="150" y="283" text-anchor="middle">Строители</text><text x="150" y="317" text-anchor="middle">замков</text></g>
</svg>
